{"title":"Dhadak 2018 Hindi 720p Pre-DVDRip x264 AAC { TaRa }.mkv","magnet":"magnet:?xt=urn:btih:1285c236066f1cab5bd229cdecd1daffccb827b9&dn=Dhadak+2018+Hindi+720p+Pre-DVDRip+x264+AAC+%7B+TaRa+%7D.mkv&tr=udp%3A%2F%2Ftracker.leechers-paradise.org%3A6969&tr=udp%3A%2F%2Fzer0day.ch%3A1337&tr=udp%3A%2F%2Fopen.demonii.com%3A1337&tr=udp%3A%2F%2Ftracker.coppersurfer.tk%3A6969&tr=udp%3A%2F%2Fexodus.desync.com%3A6969","uploader":"SkTaRa","categoryP":"video","categoryS":"movies","size":"1075914127","seeders":"257","leechers":"492","description":"===================================================================\r\nGeneral\r\nComplete name               : Dhadak 2018 Hindi 720p Pre-DVDRip x264 AAC { TaRa }.mkv\r\nFormat                      : Matroska\r\nFormat version              : Version 4 / Version 2\r\nFile size                   : 1.00 GiB\r\nDuration                    : 2h 10mn\r\nOverall bit rate            : 1 101 Kbps\r\n===================================================================\r\nVideo\r\nID                          : 1\r\nFormat                      : AVC\r\nFormat/Info                 : Advanced Video Codec\r\nFormat profile              : High@L4.1\r\nFormat settings, CABAC      : Yes\r\nFormat settings, ReFrames   : 8 frames\r\nCodec ID                    : V_MPEG4/ISO/AVC\r\nDuration                    : 2h 10mn\r\nBit rate                    : 999 Kbps\r\nWidth                       : 1 280 pixels\r\nHeight                      : 544 pixels\r\nDisplay aspect ratio        : 2.35:1\r\nFrame rate mode             : Constant\r\nFrame rate                  : 23.976 (24000/1001) fps\r\nColor space                 : YUV\r\nChroma subsampling          : 4:2:0\r\nBit depth                   : 8 bits\r\nScan type                   : Progressive\r\nBits/(Pixel*Frame)          : 0.060\r\nStream size                 : 931 MiB (91%)\r\nTitle                       : ......:::::: TaRa ::::::.....\r\nLanguage                    : Hindi\r\nDefault                     : Yes\r\nForced                      : No\r\n===================================================================\r\nAudio\r\nID                          : 2\r\nFormat                      : AAC\r\nFormat/Info                 : Advanced Audio Codec\r\nFormat profile              : HE-AAC / LC\r\nCodec ID                    : A_AAC\r\nDuration                    : 2h 10mn\r\nBit rate                    : 100.0 Kbps\r\nChannel(s)                  : 2 channels\r\nChannel positions           : Front: L R\r\nSampling rate               : 48.0 KHz / 24.0 KHz\r\nFrame rate                  : 23.438 fps (1024 spf)\r\nCompression mode            : Lossy\r\nDelay relative to video     : 31ms\r\nStream size                 : 93.2 MiB (9%)\r\nTitle                       : ......:::::: TaRa ::::::.....\r\nLanguage                    : Hindi\r\nDefault                     : Yes\r\nForced                      : No\r\n=================================================================== <a href=\"\nhttps://extraimage.net/image/sZ6w\" rel=\"nofollow\" target=\"_NEW\">\nhttps://extraimage.net/image/sZ6w</a> <a href=\"\nhttps://extraimage.net/image/sZ6a\" rel=\"nofollow\" target=\"_NEW\">\nhttps://extraimage.net/image/sZ6a</a> <a href=\"\nhttps://extraimage.net/image/sZ62\" rel=\"nofollow\" target=\"_NEW\">\nhttps://extraimage.net/image/sZ62</a> <a href=\"\nhttps://extraimage.net/image/sZ6N\" rel=\"nofollow\" target=\"_NEW\">\nhttps://extraimage.net/image/sZ6N</a> <a href=\"\nhttps://extraimage.net/image/sZ6T\" rel=\"nofollow\" target=\"_NEW\">\nhttps://extraimage.net/image/sZ6T</a> <a href=\"\nhttps://extraimage.net/image/sZ6j\" rel=\"nofollow\" target=\"_NEW\">\nhttps://extraimage.net/image/sZ6j</a> <a href=\"\nhttps://extraimage.net/image/sZ6n\" rel=\"nofollow\" target=\"_NEW\">\nhttps://extraimage.net/image/sZ6n</a> <a href=\"\nhttps://extraimage.net/image/sZ6s\" rel=\"nofollow\" target=\"_NEW\">\nhttps://extraimage.net/image/sZ6s</a> <a href=\"\nhttps://extraimage.net/image/sZ67\" rel=\"nofollow\" target=\"_NEW\">\nhttps://extraimage.net/image/sZ67</a> <a href=\"\nhttps://extraimage.net/image/sZ6c\" rel=\"nofollow\" target=\"_NEW\">\nhttps://extraimage.net/image/sZ6c</a> <a href=\"\nhttps://extraimage.net/image/sZ61\" rel=\"nofollow\" target=\"_NEW\">\nhttps://extraimage.net/image/sZ61</a> <a href=\"\nhttps://extraimage.net/image/sZ6E\" rel=\"nofollow\" target=\"_NEW\">\nhttps://extraimage.net/image/sZ6E</a> <a href=\"\nhttps://extraimage.net/image/sZ6O\" rel=\"nofollow\" target=\"_NEW\">\nhttps://extraimage.net/image/sZ6O</a> <a href=\"\nhttps://extraimage.net/image/sZ6S\" rel=\"nofollow\" target=\"_NEW\">\nhttps://extraimage.net/image/sZ6S</a> <a href=\"\nhttps://extraimage.net/image/sZ6q\" rel=\"nofollow\" target=\"_NEW\">\nhttps://extraimage.net/image/sZ6q</a>","last_updated":"2018-07-21T12:08:11.834Z","parsed":{"xt":"urn:btih:1285c236066f1cab5bd229cdecd1daffccb827b9","dn":"Dhadak 2018 Hindi 720p Pre-DVDRip x264 AAC { TaRa }.mkv","tr":["udp://exodus.desync.com:6969","udp://open.demonii.com:1337","udp://tracker.coppersurfer.tk:6969","udp://tracker.leechers-paradise.org:6969","udp://zer0day.ch:1337"],"infoHash":"1285c236066f1cab5bd229cdecd1daffccb827b9","infoHashBuffer":{"type":"Buffer","data":[18,133,194,54,6,111,28,171,91,210,41,205,236,209,218,255,204,184,39,185]},"name":"Dhadak 2018 Hindi 720p Pre-DVDRip x264 AAC { TaRa }.mkv","announce":["udp://exodus.desync.com:6969","udp://open.demonii.com:1337","udp://tracker.coppersurfer.tk:6969","udp://tracker.leechers-paradise.org:6969","udp://zer0day.ch:1337"],"urlList":[]}}